# xmcd
#
# Track frame offsets:
# 150
# 18944
# 37453
# 52474
# 75042
# 93914
#
# Disc length: 1463 seconds
#
#
# Revision: 2
# Processed by: cddbd v1.5.2PL0 Copyright (c) Steve Scherf et al.
# Submitted via: FreeRIP 2.942 
#
DISCID=4405b506
DTITLE=Gökhan Özen - Kalbim Seninle
DYEAR=2005
DGENRE=Pop
TTITLE0=Benim için N'apardın
TTITLE1=Kalbim Seninle
TTITLE2=One more time
TTITLE3=Kader Utansın
TTITLE4=Kalbim Seninle (Acoustic version)
TTITLE5=Benim için N'apardın (Nazan Öncel versiyon)
EXTD=BlooDPacH
EXTT0=
EXTT1=
EXTT2=
EXTT3=
EXTT4=
EXTT5=
PLAYORDER=
